<svg id="SvgjsSvg2317" width="1349.509033203125" height="838.0803680419922" xmlns="http://www.w3.org/2000/svg" version="1.1" xmlns:xlink="http://www.w3.org/1999/xlink" xmlns:svgjs="http://svgjs.com/svgjs"><defs id="SvgjsDefs2318"><linearGradient id="SvgjsLinearGradient2355" x1="1" y1="0" x2="0" y2="1"><stop id="SvgjsStop2356" stop-opacity="1" stop-color="#00ff00" offset="0"></stop><stop id="SvgjsStop2357" stop-opacity="1" stop-color="#00b400" offset="1"></stop></linearGradient><marker id="SvgjsMarker2364" markerWidth="16" markerHeight="12" refX="16" refY="6" viewBox="0 0 16 12" orient="auto" markerUnits="userSpaceOnUse" stroke-dasharray="0,0"><path id="SvgjsPath2365" d="M0,2 L14,6 L0,11 L0,2" fill="#323232" stroke="#323232" stroke-width="2"></path></marker><marker id="SvgjsMarker2368" markerWidth="16" markerHeight="12" refX="16" refY="6" viewBox="0 0 16 12" orient="auto" markerUnits="userSpaceOnUse" stroke-dasharray="0,0"><path id="SvgjsPath2369" d="M0,2 L14,6 L0,11 L0,2" fill="#323232" stroke="#323232" stroke-width="2"></path></marker><marker id="SvgjsMarker2372" markerWidth="16" markerHeight="12" refX="16" refY="6" viewBox="0 0 16 12" orient="auto" markerUnits="userSpaceOnUse" stroke-dasharray="0,0"><path id="SvgjsPath2373" d="M0,2 L14,6 L0,11 L0,2" fill="#323232" stroke="#323232" stroke-width="2"></path></marker><marker id="SvgjsMarker2376" markerWidth="16" markerHeight="12" refX="16" refY="6" viewBox="0 0 16 12" orient="auto" markerUnits="userSpaceOnUse" stroke-dasharray="0,0"><path id="SvgjsPath2377" d="M0,2 L14,6 L0,11 L0,2" fill="#323232" stroke="#323232" stroke-width="2"></path></marker><linearGradient id="SvgjsLinearGradient2380" x1="1" y1="0" x2="0" y2="1"><stop id="SvgjsStop2381" stop-opacity="1" stop-color="#00ff00" offset="0"></stop><stop id="SvgjsStop2382" stop-opacity="1" stop-color="#00b400" offset="1"></stop></linearGradient><marker id="SvgjsMarker2391" markerWidth="16" markerHeight="12" refX="16" refY="6" viewBox="0 0 16 12" orient="auto" markerUnits="userSpaceOnUse" stroke-dasharray="0,0"><path id="SvgjsPath2392" d="M0,2 L14,6 L0,11 L0,2" fill="#323232" stroke="#323232" stroke-width="2"></path></marker><marker id="SvgjsMarker2395" markerWidth="16" markerHeight="12" refX="16" refY="6" viewBox="0 0 16 12" orient="auto" markerUnits="userSpaceOnUse" stroke-dasharray="0,0"><path id="SvgjsPath2396" d="M0,2 L14,6 L0,11 L0,2" fill="#323232" stroke="#323232" stroke-width="2"></path></marker><marker id="SvgjsMarker2433" markerWidth="16" markerHeight="12" refX="16" refY="6" viewBox="0 0 16 12" orient="auto" markerUnits="userSpaceOnUse" stroke-dasharray="0,0"><path id="SvgjsPath2434" d="M0,2 L14,6 L0,11 L0,2" fill="#323232" stroke="#323232" stroke-width="2"></path></marker><linearGradient id="SvgjsLinearGradient2437" x1="1" y1="0" x2="0" y2="1"><stop id="SvgjsStop2438" stop-opacity="1" stop-color="#00ff00" offset="0"></stop><stop id="SvgjsStop2439" stop-opacity="1" stop-color="#00b400" offset="1"></stop></linearGradient><linearGradient id="SvgjsLinearGradient2448" x1="1" y1="0" x2="0" y2="1"><stop id="SvgjsStop2449" stop-opacity="1" stop-color="#00ff00" offset="0"></stop><stop id="SvgjsStop2450" stop-opacity="1" stop-color="#00b400" offset="1"></stop></linearGradient><marker id="SvgjsMarker2459" markerWidth="16" markerHeight="12" refX="16" refY="6" viewBox="0 0 16 12" orient="auto" markerUnits="userSpaceOnUse" stroke-dasharray="0,0"><path id="SvgjsPath2460" d="M0,2 L14,6 L0,11 L0,2" fill="#323232" stroke="#323232" stroke-width="2"></path></marker><marker id="SvgjsMarker2487" markerWidth="16" markerHeight="12" refX="16" refY="6" viewBox="0 0 16 12" orient="auto" markerUnits="userSpaceOnUse" stroke-dasharray="0,0"><path id="SvgjsPath2488" d="M0,2 L14,6 L0,11 L0,2" fill="#323232" stroke="#323232" stroke-width="2"></path></marker><marker id="SvgjsMarker2491" markerWidth="16" markerHeight="12" refX="16" refY="6" viewBox="0 0 16 12" orient="auto" markerUnits="userSpaceOnUse" stroke-dasharray="0,0"><path id="SvgjsPath2492" d="M0,2 L14,6 L0,11 L0,2" fill="#323232" stroke="#323232" stroke-width="2"></path></marker><marker id="SvgjsMarker2495" markerWidth="16" markerHeight="12" refX="16" refY="6" viewBox="0 0 16 12" orient="auto" markerUnits="userSpaceOnUse" stroke-dasharray="0,0"><path id="SvgjsPath2496" d="M0,2 L14,6 L0,11 L0,2" fill="#323232" stroke="#323232" stroke-width="2"></path></marker><marker id="SvgjsMarker2511" markerWidth="16" markerHeight="12" refX="16" refY="6" viewBox="0 0 16 12" orient="auto" markerUnits="userSpaceOnUse" stroke-dasharray="0,0"><path id="SvgjsPath2512" d="M0,2 L14,6 L0,11 L0,2" fill="#323232" stroke="#323232" stroke-width="2"></path></marker><marker id="SvgjsMarker2515" markerWidth="16" markerHeight="12" refX="16" refY="6" viewBox="0 0 16 12" orient="auto" markerUnits="userSpaceOnUse" stroke-dasharray="0,0"><path id="SvgjsPath2516" d="M0,2 L14,6 L0,11 L0,2" fill="#323232" stroke="#323232" stroke-width="2"></path></marker><linearGradient id="SvgjsLinearGradient2529" x1="1" y1="0" x2="0" y2="1"><stop id="SvgjsStop2530" stop-opacity="1" stop-color="#00ff00" offset="0"></stop><stop id="SvgjsStop2531" stop-opacity="1" stop-color="#00b400" offset="1"></stop></linearGradient><linearGradient id="SvgjsLinearGradient2540" x1="1" y1="0" x2="0" y2="1"><stop id="SvgjsStop2541" stop-opacity="1" stop-color="#00ff00" offset="0"></stop><stop id="SvgjsStop2542" stop-opacity="1" stop-color="#00b400" offset="1"></stop></linearGradient><marker id="SvgjsMarker2551" markerWidth="16" markerHeight="12" refX="16" refY="6" viewBox="0 0 16 12" orient="auto" markerUnits="userSpaceOnUse" stroke-dasharray="0,0"><path id="SvgjsPath2552" d="M0,2 L14,6 L0,11 L0,2" fill="#323232" stroke="#323232" stroke-width="2"></path></marker><marker id="SvgjsMarker2555" markerWidth="16" markerHeight="12" refX="16" refY="6" viewBox="0 0 16 12" orient="auto" markerUnits="userSpaceOnUse" stroke-dasharray="0,0"><path id="SvgjsPath2556" d="M0,2 L14,6 L0,11 L0,2" fill="#323232" stroke="#323232" stroke-width="2"></path></marker><marker id="SvgjsMarker2559" markerWidth="16" markerHeight="12" refX="16" refY="6" viewBox="0 0 16 12" orient="auto" markerUnits="userSpaceOnUse" stroke-dasharray="0,0"><path id="SvgjsPath2560" d="M0,2 L14,6 L0,11 L0,2" fill="#323232" stroke="#323232" stroke-width="2"></path></marker><marker id="SvgjsMarker2563" markerWidth="16" markerHeight="12" refX="16" refY="6" viewBox="0 0 16 12" orient="auto" markerUnits="userSpaceOnUse" stroke-dasharray="0,0"><path id="SvgjsPath2564" d="M0,2 L14,6 L0,11 L0,2" fill="#323232" stroke="#323232" stroke-width="2"></path></marker><linearGradient id="SvgjsLinearGradient2567" x1="1" y1="0" x2="0" y2="1"><stop id="SvgjsStop2568" stop-opacity="1" stop-color="#00ff00" offset="0"></stop><stop id="SvgjsStop2569" stop-opacity="1" stop-color="#00b400" offset="1"></stop></linearGradient><marker id="SvgjsMarker2576" markerWidth="16" markerHeight="12" refX="16" refY="6" viewBox="0 0 16 12" orient="auto" markerUnits="userSpaceOnUse" stroke-dasharray="0,0"><path id="SvgjsPath2577" d="M0,2 L14,6 L0,11 L0,2" fill="#323232" stroke="#323232" stroke-width="2"></path></marker><linearGradient id="SvgjsLinearGradient2580" x1="1" y1="0" x2="0" y2="1"><stop id="SvgjsStop2581" stop-opacity="1" stop-color="#9dd7ed" offset="0"></stop><stop id="SvgjsStop2582" stop-opacity="1" stop-color="#899dc0" offset="1"></stop></linearGradient><marker id="SvgjsMarker2593" markerWidth="16" markerHeight="12" refX="16" refY="6" viewBox="0 0 16 12" orient="auto" markerUnits="userSpaceOnUse" stroke-dasharray="0,0"><path id="SvgjsPath2594" d="M0,2 L14,6 L0,11 L0,2" fill="#323232" stroke="#323232" stroke-width="2"></path></marker><marker id="SvgjsMarker2597" markerWidth="16" markerHeight="12" refX="16" refY="6" viewBox="0 0 16 12" orient="auto" markerUnits="userSpaceOnUse" stroke-dasharray="0,0"><path id="SvgjsPath2598" d="M0,2 L14,6 L0,11 L0,2" fill="#323232" stroke="#323232" stroke-width="2"></path></marker><marker id="SvgjsMarker2601" markerWidth="16" markerHeight="12" refX="16" refY="6" viewBox="0 0 16 12" orient="auto" markerUnits="userSpaceOnUse" stroke-dasharray="0,0"><path id="SvgjsPath2602" d="M0,2 L14,6 L0,11 L0,2" fill="#323232" stroke="#323232" stroke-width="2"></path></marker><linearGradient id="SvgjsLinearGradient2605" x1="1" y1="0" x2="0" y2="1"><stop id="SvgjsStop2606" stop-opacity="1" stop-color="#00ff00" offset="0"></stop><stop id="SvgjsStop2607" stop-opacity="1" stop-color="#00b400" offset="1"></stop></linearGradient><marker id="SvgjsMarker2614" markerWidth="16" markerHeight="12" refX="16" refY="6" viewBox="0 0 16 12" orient="auto" markerUnits="userSpaceOnUse" stroke-dasharray="0,0"><path id="SvgjsPath2615" d="M0,2 L14,6 L0,11 L0,2" fill="#323232" stroke="#323232" stroke-width="2"></path></marker><marker id="SvgjsMarker2618" markerWidth="16" markerHeight="12" refX="16" refY="6" viewBox="0 0 16 12" orient="auto" markerUnits="userSpaceOnUse" stroke-dasharray="0,0"><path id="SvgjsPath2619" d="M0,2 L14,6 L0,11 L0,2" fill="#323232" stroke="#323232" stroke-width="2"></path></marker><marker id="SvgjsMarker2634" markerWidth="16" markerHeight="12" refX="16" refY="6" viewBox="0 0 16 12" orient="auto" markerUnits="userSpaceOnUse" stroke-dasharray="0,0"><path id="SvgjsPath2635" d="M0,2 L14,6 L0,11 L0,2" fill="#323232" stroke="#323232" stroke-width="2"></path></marker></defs><g id="SvgjsG2319" transform="translate(290.5089111328125,144.58033752441406)"><path id="SvgjsPath2320" d="M 16.666666666666668 0L 83.33333333333333 0C 105.55555555555556 0 105.55555555555556 50 83.33333333333333 50L 16.666666666666668 50C -5.555555555555556 50 -5.555555555555556 0 16.666666666666668 0Z" stroke="rgba(50,50,50,1)" stroke-width="2" fill-opacity="1" fill="#ffffff"></path><g id="SvgjsG2321"><text id="SvgjsText2322" font-family="微软雅黑" text-anchor="middle" font-size="14px" width="80px" fill="#323232" font-weight="400" align="middle" lineHeight="125%" anchor="middle" family="微软雅黑" size="14px" weight="400" font-style="" opacity="1" y="14.75" transform="rotate(0)"><tspan id="SvgjsTspan2323" dy="17" x="50"><tspan id="SvgjsTspan2324" style="text-decoration:;">bmm1</tspan></tspan></text></g></g><g id="SvgjsG2325" transform="translate(543.5089111328125,144.58033752441406)"><path id="SvgjsPath2326" d="M 16.666666666666668 0L 83.33333333333333 0C 105.55555555555556 0 105.55555555555556 50 83.33333333333333 50L 16.666666666666668 50C -5.555555555555556 50 -5.555555555555556 0 16.666666666666668 0Z" stroke="rgba(50,50,50,1)" stroke-width="2" fill-opacity="1" fill="#ffffff"></path><g id="SvgjsG2327"><text id="SvgjsText2328" font-family="微软雅黑" text-anchor="middle" font-size="14px" width="80px" fill="#323232" font-weight="400" align="middle" lineHeight="125%" anchor="middle" family="微软雅黑" size="14px" weight="400" font-style="" opacity="1" y="14.75" transform="rotate(0)"><tspan id="SvgjsTspan2329" dy="17" x="50"><tspan id="SvgjsTspan2330" style="text-decoration:;">bmm2</tspan></tspan></text></g></g><g id="SvgjsG2331" transform="translate(1129.5089111328125,144.58033752441406)"><path id="SvgjsPath2332" d="M 16.666666666666668 0L 83.33333333333333 0C 105.55555555555556 0 105.55555555555556 50 83.33333333333333 50L 16.666666666666668 50C -5.555555555555556 50 -5.555555555555556 0 16.666666666666668 0Z" stroke="rgba(50,50,50,1)" stroke-width="2" fill-opacity="1" fill="#ffffff"></path><g id="SvgjsG2333"><text id="SvgjsText2334" font-family="微软雅黑" text-anchor="middle" font-size="14px" width="80px" fill="#323232" font-weight="400" align="middle" lineHeight="125%" anchor="middle" family="微软雅黑" size="14px" weight="400" font-style="" opacity="1" y="14.75" transform="rotate(0)"><tspan id="SvgjsTspan2335" dy="17" x="50"><tspan id="SvgjsTspan2336" style="text-decoration:;">miner1</tspan></tspan></text></g></g><g id="SvgjsG2337" transform="translate(66.5089111328125,144.58033752441406)"><path id="SvgjsPath2338" d="M 16.666666666666668 0L 83.33333333333333 0C 105.55555555555556 0 105.55555555555556 50 83.33333333333333 50L 16.666666666666668 50C -5.555555555555556 50 -5.555555555555556 0 16.666666666666668 0Z" stroke="rgba(50,50,50,1)" stroke-width="2" fill-opacity="1" fill="#ffffff"></path><g id="SvgjsG2339"><text id="SvgjsText2340" font-family="微软雅黑" text-anchor="middle" font-size="14px" width="80px" fill="#323232" font-weight="400" align="middle" lineHeight="125%" anchor="middle" family="微软雅黑" size="14px" weight="400" font-style="" opacity="1" y="14.75" transform="rotate(0)"><tspan id="SvgjsTspan2341" dy="17" x="50"><tspan id="SvgjsTspan2342" style="text-decoration:;">coinbase</tspan></tspan></text></g></g><g id="SvgjsG2343" transform="translate(64.5089111328125,364.58033752441406)"><path id="SvgjsPath2344" d="M 0 26L 26 0L 104 0L 104 97.71429443359375L 0 97.71429443359375L 0 26Z" stroke="rgba(50,50,50,1)" stroke-width="2" fill-opacity="1" fill="#ffffff"></path><g id="SvgjsG2345"><text id="SvgjsText2346" font-family="微软雅黑" text-anchor="middle" font-size="14px" width="84px" fill="#323232" font-weight="400" align="middle" lineHeight="125%" anchor="middle" family="微软雅黑" size="14px" weight="400" font-style="" opacity="1" y="21.607147216796875" transform="rotate(0)"><tspan id="SvgjsTspan2347" dy="17" x="52"><tspan id="SvgjsTspan2348" style="text-decoration:;">Transaction</tspan></tspan><tspan id="SvgjsTspan2349" dy="17" x="52"><tspan id="SvgjsTspan2350" style="text-decoration:;">send 5000 </tspan></tspan><tspan id="SvgjsTspan2351" dy="17" x="52"><tspan id="SvgjsTspan2352" style="text-decoration:;">to bmm1</tspan></tspan></text></g></g><g id="SvgjsG2353" transform="translate(497.2589111328125,25.00891876220703)"><path id="SvgjsPath2354" d="M 0 5Q 0 0 5 0L 187.5 0Q 192.5 0 192.5 5L 192.5 55Q 192.5 60 187.5 60L 5 60Q 0 60 0 55L 0 5Z" stroke="rgba(0,100,0,1)" stroke-width="2" fill="url(#SvgjsLinearGradient2355)"></path><g id="SvgjsG2358"><text id="SvgjsText2359" font-family="微软雅黑" text-anchor="middle" font-size="14px" width="173px" fill="#323232" font-weight="400" align="middle" lineHeight="125%" anchor="middle" family="微软雅黑" size="14px" weight="400" font-style="" opacity="1" y="19.75" transform="rotate(0)"><tspan id="SvgjsTspan2360" dy="17" x="96.5"><tspan id="SvgjsTspan2361" style="text-decoration:;">func CreateAccount()</tspan></tspan></text></g></g><g id="SvgjsG2362"><path id="SvgjsPath2363" d="M593.5089111328125 85.00891876220703L593.5089111328125 114.79462814331055L340.5089111328125 114.79462814331055L340.5089111328125 144.58033752441406" stroke="#323232" stroke-width="2" fill="none" marker-end="url(#SvgjsMarker2364)"></path></g><g id="SvgjsG2366"><path id="SvgjsPath2367" d="M593.5089111328125 85.00891876220703L593.5089111328125 114.79462814331055L116.5089111328125 114.79462814331055L116.5089111328125 144.58033752441406" stroke="#323232" stroke-width="2" fill="none" marker-end="url(#SvgjsMarker2368)"></path></g><g id="SvgjsG2370"><path id="SvgjsPath2371" d="M593.5089111328125 85.00891876220703L593.5089111328125 114.79462814331055L593.5089111328125 114.79462814331055L593.5089111328125 144.58033752441406" stroke="#323232" stroke-width="2" fill="none" marker-end="url(#SvgjsMarker2372)"></path></g><g id="SvgjsG2374"><path id="SvgjsPath2375" d="M593.5089111328125 85.00891876220703L593.5089111328125 114.79462814331055L1179.5089111328125 114.79462814331055L1179.5089111328125 144.58033752441406" stroke="#323232" stroke-width="2" fill="none" marker-end="url(#SvgjsMarker2376)"></path></g><g id="SvgjsG2378" transform="translate(25.0089111328125,242.2946319580078)"><path id="SvgjsPath2379" d="M 0 5Q 0 0 5 0L 178 0Q 183 0 183 5L 183 54Q 183 59 178 59L 5 59Q 0 59 0 54L 0 5Z" stroke="rgba(0,100,0,1)" stroke-width="2" fill="url(#SvgjsLinearGradient2380)"></path><g id="SvgjsG2383"><text id="SvgjsText2384" font-family="微软雅黑" text-anchor="middle" font-size="14px" width="163px" fill="#323232" font-weight="400" align="middle" lineHeight="125%" anchor="middle" family="微软雅黑" size="14px" weight="400" font-style="" opacity="1" y="10.75" transform="rotate(0)"><tspan id="SvgjsTspan2385" dy="17" x="91.5"><tspan id="SvgjsTspan2386" style="text-decoration:;">func </tspan></tspan><tspan id="SvgjsTspan2387" dy="17" x="91.5"><tspan id="SvgjsTspan2388" style="text-decoration:;">CreateGenesisBlock()</tspan></tspan></text></g></g><g id="SvgjsG2389"><path id="SvgjsPath2390" d="M116.5089111328125 194.58033752441406L116.5089111328125 218.43748474121094L116.5089111328125 218.43748474121094L116.5089111328125 242.2946319580078" stroke="#323232" stroke-width="2" fill="none" marker-end="url(#SvgjsMarker2391)"></path></g><g id="SvgjsG2393"><path id="SvgjsPath2394" d="M116.5089111328125 301.2946319580078L116.5089111328125 332.93748474121094L116.5089111328125 332.93748474121094L116.5089111328125 364.58033752441406" stroke="#323232" stroke-width="2" fill="none" marker-end="url(#SvgjsMarker2395)"></path></g><g id="SvgjsG2397" transform="translate(93.0089111328125,773.0803375244141)"><path id="SvgjsPath2398" d="M 0 0L 120 0L 120 40L 0 40Z" stroke="none" fill="none"></path><g id="SvgjsG2399"><text id="SvgjsText2400" font-family="微软雅黑" text-anchor="middle" font-size="14px" width="120px" fill="#323232" font-weight="400" align="middle" lineHeight="125%" anchor="middle" family="微软雅黑" size="14px" weight="400" font-style="" opacity="1" y="9.75" transform="rotate(0)"><tspan id="SvgjsTspan2401" dy="17" x="60"><tspan id="SvgjsTspan2402" style="text-decoration:;">Genesis Block</tspan></tspan></text></g></g><g id="SvgjsG2403" transform="translate(60.5089111328125,671.5803527832031)"><path id="SvgjsPath2404" d="M 17.2 0L 172 0L 172 101.49998474121094L 17.2 101.49998474121094L 17.2 81.19998779296876L 0 81.19998779296876L 0 60.89999084472656L 17.2 60.89999084472656L 17.2 40.59999389648438L 0 40.59999389648438L 0 20.29999694824219L 17.2 20.29999694824219L 17.2 0Z" stroke="rgba(50,50,50,1)" stroke-width="2" fill-opacity="1" fill="#ffffff"></path><path id="SvgjsPath2405" d="M 17.2 81.19998779296876L 34.4 81.19998779296876L 34.4 60.89999084472656L 17.2 60.89999084472656M 17.2 40.59999389648438L 34.4 40.59999389648438L 34.4 20.29999694824219L 17.2 20.29999694824219" stroke="rgba(50,50,50,1)" stroke-width="2" fill="none"></path><path id="SvgjsPath2406" d="M 17.2 0L 172 0L 172 101.49998474121094L 17.2 101.49998474121094L 17.2 81.19998779296876L 0 81.19998779296876L 0 60.89999084472656L 17.2 60.89999084472656L 17.2 40.59999389648438L 0 40.59999389648438L 0 20.29999694824219L 17.2 20.29999694824219L 17.2 0Z" stroke="none" fill="none"></path><g id="SvgjsG2407"><text id="SvgjsText2408" font-family="微软雅黑" text-anchor="middle" font-size="14px" width="141px" fill="#323232" font-weight="400" align="middle" lineHeight="125%" anchor="middle" family="微软雅黑" size="14px" weight="400" font-style="" opacity="1" y="40.49999237060547" transform="rotate(0)"><tspan id="SvgjsTspan2409" dy="17" x="97"><tspan id="SvgjsTspan2410" style="text-decoration:underline;">Hash: genesishash</tspan></tspan></text></g></g><g id="SvgjsG2411" transform="translate(1022.0089111328125,655.5803527832031)"><path id="SvgjsPath2412" d="M 17.2 0L 172 0L 172 101.49998474121094L 17.2 101.49998474121094L 17.2 81.19998779296876L 0 81.19998779296876L 0 60.89999084472656L 17.2 60.89999084472656L 17.2 40.59999389648438L 0 40.59999389648438L 0 20.29999694824219L 17.2 20.29999694824219L 17.2 0Z" stroke="rgba(50,50,50,1)" stroke-width="2" fill-opacity="1" fill="#ffffff"></path><path id="SvgjsPath2413" d="M 17.2 81.19998779296876L 34.4 81.19998779296876L 34.4 60.89999084472656L 17.2 60.89999084472656M 17.2 40.59999389648438L 34.4 40.59999389648438L 34.4 20.29999694824219L 17.2 20.29999694824219" stroke="rgba(50,50,50,1)" stroke-width="2" fill="none"></path><path id="SvgjsPath2414" d="M 17.2 0L 172 0L 172 101.49998474121094L 17.2 101.49998474121094L 17.2 81.19998779296876L 0 81.19998779296876L 0 60.89999084472656L 17.2 60.89999084472656L 17.2 40.59999389648438L 0 40.59999389648438L 0 20.29999694824219L 17.2 20.29999694824219L 17.2 0Z" stroke="none" fill="none"></path><g id="SvgjsG2415"><text id="SvgjsText2416" font-family="微软雅黑" text-anchor="middle" font-size="14px" width="141px" fill="#323232" font-weight="400" align="middle" lineHeight="125%" anchor="middle" family="微软雅黑" size="14px" weight="400" font-style="" opacity="1" y="14.499992370605469" transform="rotate(0)"><tspan id="SvgjsTspan2417" dy="17" x="97"><tspan id="SvgjsTspan2418" style="text-decoration:underline;">previousAddrees: </tspan></tspan><tspan id="SvgjsTspan2419" dy="17" x="97"><tspan id="SvgjsTspan2420" style="text-decoration:underline;">genesishash</tspan></tspan><tspan id="SvgjsTspan2421" dy="17" x="97"><tspan id="SvgjsTspan2422" style="text-decoration:underline;"> </tspan></tspan><tspan id="SvgjsTspan2423" dy="17" x="97"><tspan id="SvgjsTspan2424" style="text-decoration:underline;">Hash: hash1</tspan></tspan></text></g></g><g id="SvgjsG2425" transform="translate(1048.0089111328125,757.0803375244141)"><path id="SvgjsPath2426" d="M 0 0L 120 0L 120 40L 0 40Z" stroke="none" fill="none"></path><g id="SvgjsG2427"><text id="SvgjsText2428" font-family="微软雅黑" text-anchor="middle" font-size="14px" width="120px" fill="#323232" font-weight="400" align="middle" lineHeight="125%" anchor="middle" family="微软雅黑" size="14px" weight="400" font-style="" opacity="1" y="9.75" transform="rotate(0)"><tspan id="SvgjsTspan2429" dy="17" x="60"><tspan id="SvgjsTspan2430" style="text-decoration:;">Block 1</tspan></tspan></text></g></g><g id="SvgjsG2431"><path id="SvgjsPath2432" d="M230.5089111328125 759.5803527832031L635.2589111328125 759.5803527832031L635.2589111328125 665.5803527832031L1040.0089111328125 665.5803527832031" stroke="#323232" stroke-width="2" fill="none" marker-end="url(#SvgjsMarker2433)"></path></g><g id="SvgjsG2435" transform="translate(250.2589111328125,242.2946319580078)"><path id="SvgjsPath2436" d="M 0 5Q 0 0 5 0L 175.5 0Q 180.5 0 180.5 5L 180.5 54Q 180.5 59 175.5 59L 5 59Q 0 59 0 54L 0 5Z" stroke="rgba(0,100,0,1)" stroke-width="2" fill="url(#SvgjsLinearGradient2437)"></path><g id="SvgjsG2440"><text id="SvgjsText2441" font-family="微软雅黑" text-anchor="middle" font-size="14px" width="161px" fill="#323232" font-weight="400" align="middle" lineHeight="125%" anchor="middle" family="微软雅黑" size="14px" weight="400" font-style="" opacity="1" y="10.75" transform="rotate(0)"><tspan id="SvgjsTspan2442" dy="17" x="90.5"><tspan id="SvgjsTspan2443" style="text-decoration:;">func InitTx()</tspan></tspan><tspan id="SvgjsTspan2444" dy="17" x="90.5"><tspan id="SvgjsTspan2445" style="text-decoration:;">func SignTx(privateKey)</tspan></tspan></text></g></g><g id="SvgjsG2446" transform="translate(503.2589111328125,242.2946319580078)"><path id="SvgjsPath2447" d="M 0 5Q 0 0 5 0L 175.5 0Q 180.5 0 180.5 5L 180.5 54Q 180.5 59 175.5 59L 5 59Q 0 59 0 54L 0 5Z" stroke="rgba(0,100,0,1)" stroke-width="2" fill="url(#SvgjsLinearGradient2448)"></path><g id="SvgjsG2451"><text id="SvgjsText2452" font-family="微软雅黑" text-anchor="middle" font-size="14px" width="161px" fill="#323232" font-weight="400" align="middle" lineHeight="125%" anchor="middle" family="微软雅黑" size="14px" weight="400" font-style="" opacity="1" y="10.75" transform="rotate(0)"><tspan id="SvgjsTspan2453" dy="17" x="90.5"><tspan id="SvgjsTspan2454" style="text-decoration:;">func InitTx()</tspan></tspan><tspan id="SvgjsTspan2455" dy="17" x="90.5"><tspan id="SvgjsTspan2456" style="text-decoration:;">func SignTx(privateKey)</tspan></tspan></text></g></g><g id="SvgjsG2457"><path id="SvgjsPath2458" d="M116.5089111328125 462.2946319580078L116.5089111328125 566.9374923706055L146.5089111328125 566.9374923706055L146.5089111328125 671.5803527832031" stroke="#323232" stroke-width="2" fill="none" marker-end="url(#SvgjsMarker2459)"></path></g><g id="SvgjsG2461" transform="translate(235.0089111328125,364.58033752441406)"><path id="SvgjsPath2462" d="M 0 24.375L 24.375 0L 97.5 0L 97.5 97.71429443359375L 0 97.71429443359375L 0 24.375Z" stroke="rgba(50,50,50,1)" stroke-width="2" fill-opacity="1" fill="#ffffff"></path><g id="SvgjsG2463"><text id="SvgjsText2464" font-family="微软雅黑" text-anchor="middle" font-size="14px" width="78px" fill="#323232" font-weight="400" align="middle" lineHeight="125%" anchor="middle" family="微软雅黑" size="14px" weight="400" font-style="" opacity="1" y="12.607147216796875" transform="rotate(0)"><tspan id="SvgjsTspan2465" dy="17" x="49"><tspan id="SvgjsTspan2466" style="text-decoration:;">Transaction</tspan></tspan><tspan id="SvgjsTspan2467" dy="17" x="49"><tspan id="SvgjsTspan2468" style="text-decoration:;">send 100 </tspan></tspan><tspan id="SvgjsTspan2469" dy="17" x="49"><tspan id="SvgjsTspan2470" style="text-decoration:;">to bmm2</tspan></tspan><tspan id="SvgjsTspan2471" dy="17" x="49"><tspan id="SvgjsTspan2472" style="text-decoration:;">fee: 10</tspan></tspan></text></g></g><g id="SvgjsG2473" transform="translate(349.0089111328125,364.58033752441406)"><path id="SvgjsPath2474" d="M 0 24.875L 24.875 0L 99.5 0L 99.5 97.71429443359375L 0 97.71429443359375L 0 24.875Z" stroke="rgba(50,50,50,1)" stroke-width="2" fill-opacity="1" fill="#ffffff"></path><g id="SvgjsG2475"><text id="SvgjsText2476" font-family="微软雅黑" text-anchor="middle" font-size="14px" width="80px" fill="#323232" font-weight="400" align="middle" lineHeight="125%" anchor="middle" family="微软雅黑" size="14px" weight="400" font-style="" opacity="1" y="12.607147216796875" transform="rotate(0)"><tspan id="SvgjsTspan2477" dy="17" x="50"><tspan id="SvgjsTspan2478" style="text-decoration:;">Transaction</tspan></tspan><tspan id="SvgjsTspan2479" dy="17" x="50"><tspan id="SvgjsTspan2480" style="text-decoration:;">send 25 to </tspan></tspan><tspan id="SvgjsTspan2481" dy="17" x="50"><tspan id="SvgjsTspan2482" style="text-decoration:;">bmm2</tspan></tspan><tspan id="SvgjsTspan2483" dy="17" x="50"><tspan id="SvgjsTspan2484" style="text-decoration:;">fee: 1</tspan></tspan></text></g></g><g id="SvgjsG2485"><path id="SvgjsPath2486" d="M340.5089111328125 194.58033752441406L340.5089111328125 218.43748474121094L340.5089111328125 218.43748474121094L340.5089111328125 242.2946319580078" stroke="#323232" stroke-width="2" fill="none" marker-end="url(#SvgjsMarker2487)"></path></g><g id="SvgjsG2489"><path id="SvgjsPath2490" d="M340.5089111328125 301.2946319580078L340.5089111328125 332.93748474121094L283.7589111328125 332.93748474121094L283.7589111328125 364.58033752441406" stroke="#323232" stroke-width="2" fill="none" marker-end="url(#SvgjsMarker2491)"></path></g><g id="SvgjsG2493"><path id="SvgjsPath2494" d="M340.5089111328125 301.2946319580078L340.5089111328125 332.93748474121094L398.7589111328125 332.93748474121094L398.7589111328125 364.58033752441406" stroke="#323232" stroke-width="2" fill="none" marker-end="url(#SvgjsMarker2495)"></path></g><g id="SvgjsG2497" transform="translate(543.0089111328125,364.58033752441406)"><path id="SvgjsPath2498" d="M 0 25.25L 25.25 0L 101 0L 101 97.71429443359375L 0 97.71429443359375L 0 25.25Z" stroke="rgba(50,50,50,1)" stroke-width="2" fill-opacity="1" fill="#ffffff"></path><g id="SvgjsG2499"><text id="SvgjsText2500" font-family="微软雅黑" text-anchor="middle" font-size="14px" width="81px" fill="#323232" font-weight="400" align="middle" lineHeight="125%" anchor="middle" family="微软雅黑" size="14px" weight="400" font-style="" opacity="1" y="12.607147216796875" transform="rotate(0)"><tspan id="SvgjsTspan2501" dy="17" x="50.5"><tspan id="SvgjsTspan2502" style="text-decoration:;">Transaction</tspan></tspan><tspan id="SvgjsTspan2503" dy="17" x="50.5"><tspan id="SvgjsTspan2504" style="text-decoration:;">send 17 to </tspan></tspan><tspan id="SvgjsTspan2505" dy="17" x="50.5"><tspan id="SvgjsTspan2506" style="text-decoration:;">bmm1</tspan></tspan><tspan id="SvgjsTspan2507" dy="17" x="50.5"><tspan id="SvgjsTspan2508" style="text-decoration:;">fee: 5</tspan></tspan></text></g></g><g id="SvgjsG2509"><path id="SvgjsPath2510" d="M593.5089111328125 194.58033752441406L593.5089111328125 218.43748474121094L593.5089111328125 218.43748474121094L593.5089111328125 242.2946319580078" stroke="#323232" stroke-width="2" fill="none" marker-end="url(#SvgjsMarker2511)"></path></g><g id="SvgjsG2513"><path id="SvgjsPath2514" d="M593.5089111328125 301.2946319580078L593.5089111328125 332.93748474121094L593.5089111328125 332.93748474121094L593.5089111328125 364.58033752441406" stroke="#323232" stroke-width="2" fill="none" marker-end="url(#SvgjsMarker2515)"></path></g><g id="SvgjsG2517" transform="translate(749.5089111328125,372.1517791748047)"><path id="SvgjsPath2518" d="M 0 9.8C 0 -2.8000000000000003 70 -2.8000000000000003 70 9.8L 70 60.199999999999996C 70 72.8 0 72.8 0 60.199999999999996L 0 9.8Z" stroke="rgba(50,50,50,1)" stroke-width="2" fill-opacity="1" fill="#ffffff"></path><path id="SvgjsPath2519" d="M 70 9.8C 70 21 0 21 0 9.8L 0 14C 0 25.2 70 25.2 70 14L 70 18.2C 70 29.4 0 29.4 0 18.2C 0 29.4 70 29.4 70 18.2Z" stroke="rgba(50,50,50,1)" stroke-width="2" fill-opacity="1" fill="#ffffff"></path><path id="SvgjsPath2520" d="M 0 7Q 35 -7 70 7L 70 63Q 35 77 0 63L 0 7Z" stroke="none" fill="none"></path><g id="SvgjsG2521"><text id="SvgjsText2522" font-family="微软雅黑" text-anchor="middle" font-size="14px" width="70px" fill="#323232" font-weight="400" align="middle" lineHeight="125%" anchor="middle" family="微软雅黑" size="14px" weight="400" font-style="" opacity="1" y="27.916666666666664" transform="rotate(0)"><tspan id="SvgjsTspan2523" dy="17" x="35"><tspan id="SvgjsTspan2524" style="text-decoration:;">Memory</tspan></tspan><tspan id="SvgjsTspan2525" dy="17" x="35"><tspan id="SvgjsTspan2526" style="text-decoration:;">Pool</tspan></tspan></text></g></g><g id="SvgjsG2527" transform="translate(812.5089111328125,236.2946319580078)"><path id="SvgjsPath2528" d="M 0 5Q 0 0 5 0L 159.5 0Q 164.5 0 164.5 5L 164.5 54Q 164.5 59 159.5 59L 5 59Q 0 59 0 54L 0 5Z" stroke="rgba(0,100,0,1)" stroke-width="2" fill="url(#SvgjsLinearGradient2529)"></path><g id="SvgjsG2532"><text id="SvgjsText2533" font-family="微软雅黑" text-anchor="middle" font-size="14px" width="145px" fill="#323232" font-weight="400" align="middle" lineHeight="125%" anchor="middle" family="微软雅黑" size="14px" weight="400" font-style="" opacity="1" y="10.75" transform="rotate(0)"><tspan id="SvgjsTspan2534" dy="17" x="82.5"><tspan id="SvgjsTspan2535" style="text-decoration:;">func PickTxAndVerify</tspan></tspan><tspan id="SvgjsTspan2536" dy="17" x="82.5"><tspan id="SvgjsTspan2537" style="text-decoration:;">Validity()</tspan></tspan></text></g></g><g id="SvgjsG2538" transform="translate(309.5089111328125,543.2946319580078)"><path id="SvgjsPath2539" d="M 0 5Q 0 0 5 0L 168 0Q 173 0 173 5L 173 54Q 173 59 168 59L 5 59Q 0 59 0 54L 0 5Z" stroke="rgba(0,100,0,1)" stroke-width="2" fill="url(#SvgjsLinearGradient2540)"></path><g id="SvgjsG2543"><text id="SvgjsText2544" font-family="微软雅黑" text-anchor="middle" font-size="14px" width="153px" fill="#323232" font-weight="400" align="middle" lineHeight="125%" anchor="middle" family="微软雅黑" size="14px" weight="400" font-style="" opacity="1" y="10.75" transform="rotate(0)"><tspan id="SvgjsTspan2545" dy="17" x="86.5"><tspan id="SvgjsTspan2546" style="text-decoration:;">func </tspan></tspan><tspan id="SvgjsTspan2547" dy="17" x="86.5"><tspan id="SvgjsTspan2548" style="text-decoration:;">SendTxtoMEMPool()</tspan></tspan></text></g></g><g id="SvgjsG2549"><path id="SvgjsPath2550" d="M283.7589111328125 462.2946319580078L283.7589111328125 502.7946319580078L396.0089111328125 502.7946319580078L396.0089111328125 543.2946319580078" stroke="#323232" stroke-width="2" fill="none" marker-end="url(#SvgjsMarker2551)"></path></g><g id="SvgjsG2553"><path id="SvgjsPath2554" d="M398.7589111328125 462.2946319580078L398.7589111328125 502.7946319580078L396.0089111328125 502.7946319580078L396.0089111328125 543.2946319580078" stroke="#323232" stroke-width="2" fill="none" marker-end="url(#SvgjsMarker2555)"></path></g><g id="SvgjsG2557"><path id="SvgjsPath2558" d="M593.5089111328125 462.2946319580078L593.5089111328125 502.7946319580078L396.0089111328125 502.7946319580078L396.0089111328125 543.2946319580078" stroke="#323232" stroke-width="2" fill="none" marker-end="url(#SvgjsMarker2559)"></path></g><g id="SvgjsG2561"><path id="SvgjsPath2562" d="M482.5089111328125 572.7946319580078L784.5089111328125 572.7946319580078L784.5089111328125 442.1517791748047" stroke="#323232" stroke-width="2" fill="none" marker-end="url(#SvgjsMarker2563)"></path></g><g id="SvgjsG2565" transform="translate(1093.0089111328125,236.2946319580078)"><path id="SvgjsPath2566" d="M 0 5Q 0 0 5 0L 168 0Q 173 0 173 5L 173 54Q 173 59 168 59L 5 59Q 0 59 0 54L 0 5Z" stroke="rgba(0,100,0,1)" stroke-width="2" fill="url(#SvgjsLinearGradient2567)"></path><g id="SvgjsG2570"><text id="SvgjsText2571" font-family="微软雅黑" text-anchor="middle" font-size="14px" width="153px" fill="#323232" font-weight="400" align="middle" lineHeight="125%" anchor="middle" family="微软雅黑" size="14px" weight="400" font-style="" opacity="1" y="19.25" transform="rotate(0)"><tspan id="SvgjsTspan2572" dy="17" x="86.5"><tspan id="SvgjsTspan2573" style="text-decoration:;">func InitNewBlock()</tspan></tspan></text></g></g><g id="SvgjsG2574"><path id="SvgjsPath2575" d="M1179.5089111328125 194.58033752441406L1179.5089111328125 215.43748474121094L1179.5089111328125 215.43748474121094L1179.5089111328125 236.2946319580078" stroke="#323232" stroke-width="2" fill="none" marker-end="url(#SvgjsMarker2576)"></path></g><g id="SvgjsG2578" transform="translate(1026.5089111328125,356.5089111328125)"><path id="SvgjsPath2579" d="M 0 22.771429443359377L 16.3 22.771429443359377L 16.3 11.385714721679689L 32.6 11.385714721679689L 32.6 0L 163 0L 163 79.7000030517578L 146.70000000000002 79.7000030517578L 146.70000000000002 91.08571777343751L 130.4 91.08571777343751L 130.4 102.47143249511718Q 97.80000000000001 91.08571777343751 65.2 102.47143249511718Q 32.6 113.85714721679688 0 102.47143249511718L 0 22.771429443359377M 0 22.771429443359377L 130.4 22.771429443359377L 130.4 102.47143249511718Q 97.80000000000001 91.08571777343751 65.2 102.47143249511718Q 32.6 113.85714721679688 0 102.47143249511718L 0 22.771429443359377M 16.3 22.771429443359377L 16.3 11.385714721679689L 146.70000000000002 11.385714721679689L 146.70000000000002 91.08571777343751L 130.4 91.08571777343751L 130.4 22.771429443359377" stroke="rgba(11,108,195,1)" stroke-width="2" fill="url(#SvgjsLinearGradient2580)"></path><g id="SvgjsG2583"><text id="SvgjsText2584" font-family="微软雅黑" text-anchor="middle" font-size="14px" width="131px" fill="#323232" font-weight="400" align="middle" lineHeight="125%" anchor="middle" family="微软雅黑" size="14px" weight="400" font-style="" opacity="1" y="41.06428833007813" transform="rotate(0)"><tspan id="SvgjsTspan2585" dy="17" x="65.5"><tspan id="SvgjsTspan2586" style="text-decoration:;">A new block with</tspan></tspan><tspan id="SvgjsTspan2587" dy="17" x="65.5"><tspan id="SvgjsTspan2588" style="text-decoration:;">collection of valid </tspan></tspan><tspan id="SvgjsTspan2589" dy="17" x="65.5"><tspan id="SvgjsTspan2590" style="text-decoration:;">Transactions</tspan></tspan></text></g></g><g id="SvgjsG2591"><path id="SvgjsPath2592" d="M1179.5089111328125 295.2946319580078L1179.5089111328125 325.90177154541016L1108.0089111328125 325.90177154541016L1108.0089111328125 356.5089111328125" stroke="#323232" stroke-width="2" fill="none" marker-end="url(#SvgjsMarker2593)"></path></g><g id="SvgjsG2595"><path id="SvgjsPath2596" d="M977.0089111328125 265.7946319580078L1001.7589111328125 265.7946319580078L1001.7589111328125 413.43748474121094L1026.5089111328125 413.43748474121094" stroke="#323232" stroke-width="2" fill="none" marker-end="url(#SvgjsMarker2597)"></path></g><g id="SvgjsG2599"><path id="SvgjsPath2600" d="M784.5089111328125 372.1517791748047L784.5089111328125 265.7946319580078L812.5089111328125 265.7946319580078" stroke="#323232" stroke-width="2" fill="none" marker-end="url(#SvgjsMarker2601)"></path></g><g id="SvgjsG2603" transform="translate(1021.5089111328125,487.2946319580078)"><path id="SvgjsPath2604" d="M 0 5Q 0 0 5 0L 168 0Q 173 0 173 5L 173 54Q 173 59 168 59L 5 59Q 0 59 0 54L 0 5Z" stroke="rgba(0,100,0,1)" stroke-width="2" fill="url(#SvgjsLinearGradient2605)"></path><g id="SvgjsG2608"><text id="SvgjsText2609" font-family="微软雅黑" text-anchor="middle" font-size="14px" width="153px" fill="#323232" font-weight="400" align="middle" lineHeight="125%" anchor="middle" family="微软雅黑" size="14px" weight="400" font-style="" opacity="1" y="19.25" transform="rotate(0)"><tspan id="SvgjsTspan2610" dy="17" x="86.5"><tspan id="SvgjsTspan2611" style="text-decoration:;">func Mining()</tspan></tspan></text></g></g><g id="SvgjsG2612"><path id="SvgjsPath2613" d="M1108.0089111328125 456.13391494750977L1108.0089111328125 471.7142734527588L1108.0089111328125 471.7142734527588L1108.0089111328125 487.2946319580078" stroke="#323232" stroke-width="2" fill="none" marker-end="url(#SvgjsMarker2614)"></path></g><g id="SvgjsG2616"><path id="SvgjsPath2617" d="M1108.0089111328125 546.2946319580078L1108.0089111328125 600.9374923706055L1108.0089111328125 600.9374923706055L1108.0089111328125 655.5803527832031" stroke="#323232" stroke-width="2" fill="none" marker-end="url(#SvgjsMarker2618)"></path></g><g id="SvgjsG2620" transform="translate(1221.5089111328125,572.7946319580078)"><path id="SvgjsPath2621" d="M 0 0L 103 0L 103 80.35714721679688L 0 80.35714721679688Z" stroke="rgba(50,50,50,1)" stroke-width="2" fill-opacity="1" fill="#ffffff"></path><g id="SvgjsG2622"><text id="SvgjsText2623" font-family="微软雅黑" text-anchor="middle" font-size="14px" width="83px" fill="#323232" font-weight="400" align="middle" lineHeight="125%" anchor="middle" family="微软雅黑" size="14px" weight="400" font-style="" opacity="1" y="3.9285736083984375" transform="rotate(0)"><tspan id="SvgjsTspan2624" dy="17" x="51.5"><tspan id="SvgjsTspan2625" style="text-decoration:;">Update </tspan></tspan><tspan id="SvgjsTspan2626" dy="17" x="51.5"><tspan id="SvgjsTspan2627" style="text-decoration:;">account </tspan></tspan><tspan id="SvgjsTspan2628" dy="17" x="51.5"><tspan id="SvgjsTspan2629" style="text-decoration:;">records in </tspan></tspan><tspan id="SvgjsTspan2630" dy="17" x="51.5"><tspan id="SvgjsTspan2631" style="text-decoration:;">the system</tspan></tspan></text></g></g><g id="SvgjsG2632"><path id="SvgjsPath2633" d="M1194.5089111328125 516.7946319580078L1273.0089111328125 516.7946319580078L1273.0089111328125 572.7946319580078" stroke="#323232" stroke-width="2" fill="none" marker-end="url(#SvgjsMarker2634)"></path></g></svg>